<svg width="27" height="25" viewBox="0 0 27 25" fill="none" xmlns="http://www.w3.org/2000/svg">
<path d="M26.4371 21.6605C25.9648 21.078 25.44 20.4308 24.8628 19.7189C24.2331 18.9422 23.7102 18.1348 23.2942 17.2965C22.8249 16.4577 22.5952 15.6216 22.605 14.7884C22.6156 13.8911 22.9703 13.158 23.669 12.5893C24.3153 11.9559 24.9897 11.1946 25.6923 10.3054C26.3416 9.41559 26.6757 8.1695 26.6946 6.56712C26.7142 4.90066 26.2513 3.51698 25.306 2.41609C24.3075 1.31457 23.1428 0.755982 21.8121 0.74032C19.8958 0.717766 18.4222 1.53377 17.3912 3.18834C16.3078 4.77818 15.7532 6.66271 15.7276 8.84194C15.6884 12.1749 16.4776 15.2291 18.0953 18.0046C19.6605 20.7154 21.5233 23.013 23.6839 24.8974L26.4371 21.6605ZM10.8674 21.4773C10.3951 20.8948 9.87037 20.2476 9.29315 19.5356C8.66344 18.759 8.14058 17.9515 7.72455 17.1133C7.25529 16.2744 7.02556 15.4384 7.03537 14.6051C7.04593 13.7078 7.4006 12.9748 8.09937 12.4061C8.74567 11.7726 9.42009 11.0113 10.1226 10.1222C10.772 9.23234 11.106 7.98625 11.1249 6.38387C11.1445 4.7174 10.6817 3.33373 9.73636 2.23284C8.73782 1.13132 7.57319 0.572732 6.24245 0.557069C4.32618 0.534516 2.85256 1.35052 1.82158 3.00509C0.738135 4.59493 0.183585 6.47946 0.157936 8.65869C0.118708 11.9916 0.907933 15.0458 2.52561 17.8213C4.09081 20.5321 5.95369 22.8297 8.11422 24.7142L10.8674 21.4773Z" fill="white"/>
</svg>
